<svg width="228" height="143" viewBox="0 0 228 143" fill="none" xmlns="http://www.w3.org/2000/svg">
<g filter="url(#filter0_d_2360_6)">
<path d="M54.9509 0.376628C62.11 0.373818 68.9499 1.54301 75.4707 3.8842C81.9915 6.18277 87.8097 9.86657 92.9253 14.9356C98.041 19.962 102.071 26.5868 105.014 34.8101C107.958 43.0334 109.432 53.0683 109.436 64.9149C109.483 75.824 108.209 85.6043 105.613 94.2559C103.017 102.865 99.2909 110.196 94.4353 116.249C89.6223 122.302 83.8287 126.928 77.0544 130.126C70.28 133.283 62.7167 134.862 54.3645 134.866C45.1599 134.869 37.0413 133.104 30.0087 129.57C23.0186 125.993 17.4131 121.18 13.1919 115.13C9.01342 109.081 6.51786 102.306 5.70526 94.8065L36.8345 94.7943C37.8163 99.1405 39.8844 102.421 43.0387 104.636C46.1929 106.808 49.9647 107.893 54.3539 107.891C62.3652 107.888 68.3511 104.413 72.3114 97.465C76.2718 90.5174 78.2496 81.0777 78.2449 69.1459L77.4779 69.1462C75.647 73.0674 73.0489 76.4349 69.6835 79.2487C66.3608 82.0625 62.5051 84.216 58.1165 85.7092C53.7278 87.2024 49.1046 87.95 44.2466 87.9519C36.4057 87.9549 29.4803 86.1679 23.4704 82.5907C17.503 79.0135 12.8136 74.0935 9.40206 67.8306C6.03312 61.5677 4.32577 54.4093 4.27999 46.3553C4.23383 37.3213 6.34008 29.3517 10.5987 22.4466C14.8574 15.4989 20.7998 10.0846 28.4262 6.20381C36.0525 2.28035 44.894 0.337961 54.9509 0.376628ZM55.1522 24.6663C51.2317 24.6679 47.7378 25.5854 44.6703 27.419C41.6454 29.2526 39.26 31.7251 37.5141 34.8366C35.7682 37.9481 34.9173 41.4427 34.9614 45.3206C35.0055 49.1984 35.8805 52.6924 37.5863 55.8025C39.3346 58.9126 41.7007 61.3833 44.6843 63.2145C47.7106 65.0457 51.1627 65.9605 55.0405 65.959C57.9383 65.9578 60.6227 65.4241 63.0939 64.3578C65.5651 63.2915 67.7165 61.8205 69.5481 59.9448C71.3798 58.0264 72.8064 55.81 73.8282 53.2954C74.8925 50.7807 75.4028 48.0959 75.3591 45.2408C75.315 41.4482 74.4188 37.9968 72.6704 34.8867C70.922 31.7766 68.5134 29.306 65.4445 27.4748C62.4182 25.601 58.9874 24.6648 55.1522 24.6663ZM126.834 133.047L126.825 110.292L174.557 68.4689C178.135 65.2289 181.181 62.266 183.694 59.5804C186.207 56.8521 188.124 54.1241 189.444 51.3963C190.764 48.6259 191.423 45.6214 191.422 42.3827C191.42 38.7606 190.631 35.6714 189.053 33.1152C187.475 30.5164 185.301 28.5144 182.531 27.1092C179.76 25.7041 176.585 25.0022 173.006 25.0036C169.383 25.005 166.209 25.752 163.482 27.2445C160.756 28.6945 158.626 30.8047 157.093 33.5752C155.602 36.3456 154.858 39.7124 154.86 43.6755L124.881 43.6873C124.877 34.781 126.877 27.0885 130.88 20.6096C134.883 14.1308 140.507 9.14276 147.749 5.6456C155.035 2.10581 163.493 0.334021 173.124 0.330241C183.053 0.326344 191.683 1.98489 199.014 5.30588C206.344 8.62686 212.014 13.2695 216.022 19.2339C220.072 25.1556 222.099 32.0369 222.102 39.8778C222.104 44.8636 221.105 49.8072 219.104 54.7085C217.103 59.6099 213.504 65.0232 208.308 70.9485C203.154 76.8739 195.827 83.9719 186.327 92.2427L170.673 106.695L170.673 107.526L223.727 107.505L223.737 133.009L126.834 133.047Z" fill="black"/>
</g>
<defs>
<filter id="filter0_d_2360_6" x="0.198242" y="0.246582" width="227.54" height="142.639" filterUnits="userSpaceOnUse" color-interpolation-filters="sRGB">
<feFlood flood-opacity="0" result="BackgroundImageFix"/>
<feColorMatrix in="SourceAlpha" type="matrix" values="0 0 0 0 0 0 0 0 0 0 0 0 0 0 0 0 0 0 127 0" result="hardAlpha"/>
<feOffset dy="4"/>
<feGaussianBlur stdDeviation="2"/>
<feComposite in2="hardAlpha" operator="out"/>
<feColorMatrix type="matrix" values="0 0 0 0 0 0 0 0 0 0 0 0 0 0 0 0 0 0 0.25 0"/>
<feBlend mode="normal" in2="BackgroundImageFix" result="effect1_dropShadow_2360_6"/>
<feBlend mode="normal" in="SourceGraphic" in2="effect1_dropShadow_2360_6" result="shape"/>
</filter>
</defs>
</svg>
