<svg width="230" height="75" viewBox="0 0 230 75" fill="none" xmlns="http://www.w3.org/2000/svg">
<path d="M194.793 56.9701L189.6 54.1021L210.171 35.5539L216.415 39.0029L211.657 66.2849L206.465 63.4169L210.49 42.565L210.311 42.4661L194.793 56.9701ZM199.444 47.7825L211.709 54.5569L209.62 58.3393L197.355 51.5649L199.444 47.7825Z" fill="black"/>
<path d="M175.173 29.4318C175.184 28.7845 175.105 28.1852 174.935 27.634C174.768 27.0747 174.509 26.5674 174.158 26.1123C173.818 25.6515 173.389 25.2482 172.871 24.9023C172.361 24.5589 171.764 24.2823 171.079 24.0726C169.8 23.6806 168.578 23.6539 167.414 23.9924C166.257 24.3334 165.224 25.0286 164.314 26.078C163.407 27.1192 162.686 28.5117 162.152 30.2556C161.618 31.9994 161.428 33.5637 161.583 34.9483C161.738 36.3329 162.202 37.4956 162.975 38.4365C163.75 39.3692 164.797 40.0378 166.117 40.4423C167.315 40.8093 168.403 40.9108 169.38 40.7467C170.368 40.577 171.206 40.1696 171.894 39.5246C172.59 38.8822 173.101 38.0272 173.428 36.9597L174.455 37.4482L168.001 35.4708L169.222 31.486L179.698 34.6955L178.731 37.8491C178.057 40.0493 177.014 41.7975 175.6 43.0938C174.189 44.3819 172.538 45.204 170.646 45.5603C168.757 45.9085 166.761 45.7604 164.658 45.1163C162.312 44.3972 160.408 43.2481 158.949 41.6689C157.492 40.0816 156.56 38.1781 156.153 35.9586C155.756 33.7333 155.962 31.3006 156.771 28.6604C157.393 26.6313 158.24 24.9122 159.314 23.5029C160.398 22.088 161.644 20.99 163.051 20.2088C164.458 19.4276 165.959 18.965 167.554 18.8209C169.149 18.6767 170.774 18.8581 172.428 19.3649C173.846 19.7993 175.102 20.4116 176.197 21.2017C177.295 21.9837 178.201 22.8943 178.917 23.9336C179.641 24.9754 180.146 26.1061 180.431 27.3258C180.72 28.5373 180.76 29.7886 180.552 31.0796L175.173 29.4318Z" fill="black"/>
<path d="M123.873 36.8134L126.776 10.793L144.309 12.7492L143.803 17.2849L131.771 15.9425L131.08 22.1427L142.209 23.3845L141.703 27.9202L130.573 26.6785L129.88 32.8914L141.963 34.2394L141.457 38.7752L123.873 36.8134Z" fill="black"/>
<path d="M95.3902 36.851L86.1314 37.497L84.3091 11.3786L93.6444 10.7273C96.2715 10.544 98.5695 10.9091 100.538 11.8226C102.507 12.7275 104.069 14.1179 105.225 15.9937C106.39 17.8689 107.067 20.1626 107.256 22.8747C107.446 25.5954 107.094 27.9693 106.202 29.9966C105.318 32.0233 103.956 33.6262 102.116 34.8054C100.285 35.984 98.0428 36.6659 95.3902 36.851ZM91.3234 32.3803L94.8305 32.1356C96.4629 32.0217 97.8158 31.6368 98.8892 30.981C99.9706 30.316 100.749 29.3518 101.225 28.0884C101.708 26.8159 101.882 25.2061 101.746 23.2591C101.612 21.3292 101.217 19.7719 100.562 18.5873C99.9154 17.4022 99.015 16.5594 97.8609 16.059C96.7068 15.5586 95.3136 15.3653 93.6812 15.4792L90.1613 15.7248L91.3234 32.3803Z" fill="black"/>
<path d="M58.8031 16.1049L64.1391 14.6321L68.6632 31.022C69.1712 32.8622 69.1761 34.5938 68.678 36.2166C68.1882 37.8372 67.2653 39.2502 65.9093 40.4556C64.551 41.6528 62.8285 42.5394 60.7418 43.1154C58.6468 43.6936 56.7093 43.8173 54.9293 43.4864C53.1469 43.1473 51.6299 42.4078 50.378 41.268C49.1262 40.1282 48.2463 38.6382 47.7383 36.7979L43.2142 20.408L48.5502 18.9351L52.9484 34.869C53.2138 35.8302 53.6591 36.6268 54.2845 37.2588C54.918 37.8885 55.6799 38.3103 56.5701 38.5244C57.4603 38.7384 58.4188 38.7037 59.4458 38.4202C60.4809 38.1345 61.3215 37.6726 61.9677 37.0345C62.622 36.3941 63.0555 35.6423 63.2681 34.779C63.4889 33.9135 63.4667 33.0001 63.2014 32.0389L58.8031 16.1049Z" fill="black"/>
<path d="M17.6676 60.0422L5.97436 36.6167L15.3537 31.9348C17.0771 31.0746 18.642 30.6125 20.0485 30.5487C21.455 30.4848 22.6745 30.762 23.707 31.3801C24.7356 31.9906 25.5431 32.8831 26.1293 34.0574C26.586 34.9724 26.8046 35.8683 26.785 36.7449C26.7615 37.6139 26.5399 38.4294 26.1201 39.1914C25.7042 39.942 25.1339 40.6125 24.4093 41.2028L24.5235 41.4315C25.4347 41.0243 26.3953 40.8592 27.4053 40.9361C28.423 41.0092 29.3851 41.3433 30.2919 41.9385C31.1948 42.5261 31.9336 43.3956 32.5084 44.547C33.1289 45.79 33.3739 47.0536 33.2434 48.338C33.1168 49.611 32.5957 50.8284 31.6802 51.9903C30.7646 53.1522 29.4299 54.1709 27.6761 55.0463L17.6676 60.0422ZM20.5992 53.5208L24.6369 51.5054C26.0171 50.8164 26.8923 50.0509 27.2626 49.2088C27.6291 48.3591 27.5915 47.4919 27.15 46.6074C26.8265 45.9592 26.3847 45.4653 25.8246 45.1257C25.2645 44.7861 24.6243 44.6199 23.9039 44.627C23.1912 44.6304 22.4383 44.83 21.6452 45.2258L17.4932 47.2984L20.5992 53.5208ZM15.8202 43.947L19.4919 42.1142C20.1706 41.7755 20.714 41.3566 21.1222 40.8575C21.5341 40.3471 21.7823 39.7946 21.8665 39.2C21.9584 38.6017 21.8502 37.9937 21.5418 37.376C21.1193 36.5296 20.4775 35.9975 19.6162 35.7796C18.7626 35.558 17.7867 35.7213 16.6887 36.2694L12.9255 38.1478L15.8202 43.947Z" fill="black"/>
</svg>
