<svg width="429" height="409" viewBox="0 0 429 409" fill="none" xmlns="http://www.w3.org/2000/svg">
<g filter="url(#filter0_d_2397_20)">
<ellipse cx="212.004" cy="200.5" rx="192" ry="184.5" fill="#FBF5E7"/>
</g>
<g filter="url(#filter1_d_2397_20)">
<path d="M403.004 200.5C403.004 98.6035 317.267 16 211.504 16M211.504 385C105.742 385 20.0044 302.397 20.0044 200.5" stroke="black" stroke-width="10" stroke-linecap="round" stroke-linejoin="round"/>
</g>
<g filter="url(#filter2_d_2397_20)">
<path d="M149.955 133.377C157.114 133.374 163.954 134.543 170.475 136.884C176.996 139.183 182.814 142.867 187.93 147.936C193.045 152.962 197.075 159.587 200.018 167.81C202.962 176.033 204.436 186.068 204.441 197.915C204.488 208.824 203.213 218.604 200.617 227.256C198.021 235.865 194.295 243.196 189.44 249.249C184.627 255.302 178.833 259.928 172.059 263.126C165.284 266.283 157.721 267.862 149.369 267.866C140.164 267.869 132.046 266.104 125.013 262.57C118.023 258.993 112.417 254.18 108.196 248.13C104.018 242.081 101.522 235.306 100.71 227.806L131.839 227.794C132.821 232.14 134.889 235.421 138.043 237.636C141.197 239.808 144.969 240.893 149.358 240.891C157.37 240.888 163.355 237.413 167.316 230.465C171.276 223.517 173.254 214.078 173.249 202.146L172.482 202.146C170.651 206.067 168.053 209.435 164.688 212.249C161.365 215.063 157.509 217.216 153.121 218.709C148.732 220.202 144.109 220.95 139.251 220.952C131.41 220.955 124.485 219.168 118.475 215.591C112.507 212.013 107.818 207.093 104.406 200.831C101.038 194.568 99.3302 187.409 99.2844 179.355C99.2382 170.321 101.344 162.352 105.603 155.447C109.862 148.499 115.804 143.085 123.431 139.204C131.057 135.28 139.898 133.338 149.955 133.377ZM150.157 157.666C146.236 157.668 142.742 158.585 139.675 160.419C136.65 162.253 134.264 164.725 132.519 167.837C130.773 170.948 129.922 174.443 129.966 178.321C130.01 182.198 130.885 185.692 132.591 188.802C134.339 191.913 136.705 194.383 139.689 196.214C142.715 198.046 146.167 198.961 150.045 198.959C152.943 198.958 155.627 198.424 158.098 197.358C160.569 196.292 162.721 194.82 164.553 192.945C166.384 191.026 167.811 188.81 168.833 186.295C169.897 183.781 170.407 181.096 170.364 178.241C170.319 174.448 169.423 170.997 167.675 167.887C165.926 164.777 163.518 162.306 160.449 160.475C157.423 158.601 153.992 157.665 150.157 157.666ZM221.838 266.047L221.829 243.292L269.561 201.469C273.139 198.229 276.185 195.266 278.698 192.58C281.211 189.852 283.128 187.124 284.448 184.396C285.768 181.626 286.427 178.621 286.426 175.383C286.425 171.761 285.635 168.671 284.057 166.115C282.48 163.516 280.305 161.514 277.535 160.109C274.765 158.704 271.59 158.002 268.01 158.004C264.388 158.005 261.213 158.752 258.487 160.245C255.76 161.694 253.63 163.805 252.097 166.575C250.607 169.346 249.862 172.712 249.864 176.675L219.885 176.687C219.882 167.781 221.882 160.088 225.885 153.61C229.888 147.131 235.511 142.143 242.754 138.646C250.039 135.106 258.498 133.334 268.128 133.33C278.057 133.326 286.687 134.985 294.018 138.306C301.349 141.627 307.018 146.27 311.026 152.234C315.077 158.156 317.104 165.037 317.107 172.878C317.109 177.864 316.109 182.807 314.108 187.709C312.107 192.61 308.509 198.023 303.312 203.949C298.158 209.874 290.831 216.972 281.332 225.243L265.677 239.695L265.677 240.526L318.731 240.505L318.741 266.009L221.838 266.047Z" fill="black"/>
</g>
<path d="M20 200.5H75.0091" stroke="black" stroke-width="10" stroke-linecap="round"/>
<path d="M357.999 201.5H403.01" stroke="black" stroke-width="10" stroke-linecap="round"/>
<path d="M292.797 97.9701L287.605 95.1021L308.175 76.5539L314.42 80.0029L309.661 107.285L304.469 104.417L308.494 83.565L308.315 83.4661L292.797 97.9701ZM297.448 88.7825L309.713 95.5569L307.624 99.3393L295.359 92.5649L297.448 88.7825Z" fill="black"/>
<path d="M273.178 70.4318C273.189 69.7845 273.109 69.1852 272.94 68.634C272.772 68.0747 272.513 67.5674 272.162 67.1123C271.822 66.6515 271.393 66.2482 270.875 65.9023C270.365 65.5589 269.768 65.2823 269.084 65.0726C267.804 64.6806 266.582 64.6539 265.418 64.9924C264.262 65.3334 263.229 66.0286 262.319 67.078C261.411 68.1192 260.691 69.5117 260.156 71.2556C259.622 72.9994 259.432 74.5637 259.588 75.9483C259.743 77.3329 260.207 78.4956 260.979 79.4365C261.754 80.3692 262.802 81.0378 264.122 81.4423C265.319 81.8093 266.407 81.9108 267.384 81.7467C268.372 81.577 269.21 81.1696 269.898 80.5246C270.594 79.8822 271.106 79.0272 271.433 77.9597L272.46 78.4482L266.006 76.4708L267.227 72.486L277.702 75.6955L276.736 78.8491C276.062 81.0493 275.018 82.7975 273.605 84.0938C272.194 85.3819 270.542 86.204 268.651 86.5603C266.761 86.9085 264.765 86.7604 262.663 86.1163C260.316 85.3972 258.413 84.2481 256.953 82.6689C255.497 81.0816 254.564 79.1781 254.157 76.9586C253.76 74.7333 253.966 72.3006 254.775 69.6604C255.397 67.6313 256.245 65.9122 257.318 64.5029C258.402 63.088 259.648 61.99 261.055 61.2088C262.462 60.4276 263.963 59.965 265.558 59.8209C267.154 59.6767 268.778 59.8581 270.432 60.3649C271.85 60.7993 273.107 61.4116 274.202 62.2017C275.299 62.9837 276.206 63.8943 276.921 64.9336C277.645 65.9754 278.15 67.1061 278.436 68.3258C278.724 69.5373 278.764 70.7886 278.556 72.0796L273.178 70.4318Z" fill="black"/>
<path d="M221.877 77.8134L224.78 51.793L242.314 53.7492L241.808 58.2849L229.776 56.9425L229.084 63.1427L240.214 64.3845L239.708 68.9202L228.578 67.6785L227.885 73.8914L239.967 75.2394L239.461 79.7752L221.877 77.8134Z" fill="black"/>
<path d="M193.395 77.851L184.136 78.497L182.313 52.3786L191.649 51.7273C194.276 51.544 196.574 51.9091 198.543 52.8226C200.511 53.7275 202.073 55.1179 203.229 56.9937C204.394 58.8689 205.071 61.1626 205.26 63.8747C205.45 66.5954 205.099 68.9693 204.206 70.9966C203.323 73.0233 201.961 74.6262 200.121 75.8054C198.289 76.984 196.047 77.6659 193.395 77.851ZM189.328 73.3803L192.835 73.1356C194.467 73.0217 195.82 72.6368 196.894 71.981C197.975 71.316 198.753 70.3518 199.229 69.0884C199.713 67.8159 199.887 66.2061 199.751 64.2591C199.616 62.3292 199.221 60.7719 198.566 59.5873C197.92 58.4022 197.019 57.5594 195.865 57.059C194.711 56.5586 193.318 56.3653 191.686 56.4792L188.166 56.7248L189.328 73.3803Z" fill="black"/>
<path d="M156.807 57.1049L162.143 55.6321L166.668 72.022C167.176 73.8622 167.181 75.5938 166.682 77.2166C166.193 78.8372 165.27 80.2502 163.914 81.4556C162.555 82.6528 160.833 83.5394 158.746 84.1154C156.651 84.6936 154.714 84.8173 152.934 84.4864C151.151 84.1473 149.634 83.4078 148.382 82.268C147.131 81.1282 146.251 79.6382 145.743 77.7979L141.219 61.408L146.555 59.9351L150.953 75.869C151.218 76.8302 151.664 77.6268 152.289 78.2588C152.922 78.8885 153.684 79.3103 154.574 79.5244C155.465 79.7384 156.423 79.7037 157.45 79.4202C158.485 79.1345 159.326 78.6726 159.972 78.0345C160.626 77.3941 161.06 76.6423 161.273 75.779C161.493 74.9135 161.471 74.0001 161.206 73.0389L156.807 57.1049Z" fill="black"/>
<path d="M115.672 101.042L103.979 77.6167L113.358 72.9348C115.081 72.0746 116.646 71.6125 118.053 71.5487C119.459 71.4848 120.679 71.762 121.711 72.3801C122.74 72.9906 123.547 73.8831 124.134 75.0574C124.59 75.9724 124.809 76.8683 124.789 77.7449C124.766 78.6139 124.544 79.4294 124.125 80.1914C123.709 80.942 123.138 81.6125 122.414 82.2028L122.528 82.4315C123.439 82.0243 124.4 81.8592 125.41 81.9361C126.427 82.0092 127.39 82.3433 128.296 82.9385C129.199 83.5261 129.938 84.3956 130.513 85.547C131.133 86.79 131.378 88.0536 131.248 89.338C131.121 90.611 130.6 91.8284 129.685 92.9903C128.769 94.1522 127.434 95.1709 125.68 96.0463L115.672 101.042ZM118.604 94.5208L122.641 92.5054C124.021 91.8164 124.897 91.0509 125.267 90.2088C125.633 89.3591 125.596 88.4919 125.154 87.6074C124.831 86.9592 124.389 86.4653 123.829 86.1257C123.269 85.7861 122.629 85.6199 121.908 85.627C121.196 85.6304 120.443 85.83 119.65 86.2258L115.498 88.2984L118.604 94.5208ZM113.825 84.947L117.496 83.1142C118.175 82.7755 118.718 82.3566 119.127 81.8575C119.539 81.3471 119.787 80.7946 119.871 80.2C119.963 79.6017 119.855 78.9937 119.546 78.376C119.124 77.5296 118.482 76.9975 117.621 76.7796C116.767 76.558 115.791 76.7213 114.693 77.2694L110.93 79.1478L113.825 84.947Z" fill="black"/>
<defs>
<filter id="filter0_d_2397_20" x="15.0044" y="5" width="414" height="399" filterUnits="userSpaceOnUse" color-interpolation-filters="sRGB">
<feFlood flood-opacity="0" result="BackgroundImageFix"/>
<feColorMatrix in="SourceAlpha" type="matrix" values="0 0 0 0 0 0 0 0 0 0 0 0 0 0 0 0 0 0 127 0" result="hardAlpha"/>
<feOffset dx="10" dy="4"/>
<feGaussianBlur stdDeviation="7.5"/>
<feComposite in2="hardAlpha" operator="out"/>
<feColorMatrix type="matrix" values="0 0 0 0 0 0 0 0 0 0 0 0 0 0 0 0 0 0 0.5 0"/>
<feBlend mode="normal" in2="BackgroundImageFix" result="effect1_dropShadow_2397_20"/>
<feBlend mode="normal" in="SourceGraphic" in2="effect1_dropShadow_2397_20" result="shape"/>
</filter>
<filter id="filter1_d_2397_20" x="0.00439453" y="0" width="423" height="409" filterUnits="userSpaceOnUse" color-interpolation-filters="sRGB">
<feFlood flood-opacity="0" result="BackgroundImageFix"/>
<feColorMatrix in="SourceAlpha" type="matrix" values="0 0 0 0 0 0 0 0 0 0 0 0 0 0 0 0 0 0 127 0" result="hardAlpha"/>
<feOffset dy="4"/>
<feGaussianBlur stdDeviation="7.5"/>
<feComposite in2="hardAlpha" operator="out"/>
<feColorMatrix type="matrix" values="0 0 0 0 0 0 0 0 0 0 0 0 0 0 0 0 0 0 0.25 0"/>
<feBlend mode="normal" in2="BackgroundImageFix" result="effect1_dropShadow_2397_20"/>
<feBlend mode="normal" in="SourceGraphic" in2="effect1_dropShadow_2397_20" result="shape"/>
</filter>
<filter id="filter2_d_2397_20" x="95.2026" y="133.247" width="227.54" height="142.639" filterUnits="userSpaceOnUse" color-interpolation-filters="sRGB">
<feFlood flood-opacity="0" result="BackgroundImageFix"/>
<feColorMatrix in="SourceAlpha" type="matrix" values="0 0 0 0 0 0 0 0 0 0 0 0 0 0 0 0 0 0 127 0" result="hardAlpha"/>
<feOffset dy="4"/>
<feGaussianBlur stdDeviation="2"/>
<feComposite in2="hardAlpha" operator="out"/>
<feColorMatrix type="matrix" values="0 0 0 0 0 0 0 0 0 0 0 0 0 0 0 0 0 0 0.25 0"/>
<feBlend mode="normal" in2="BackgroundImageFix" result="effect1_dropShadow_2397_20"/>
<feBlend mode="normal" in="SourceGraphic" in2="effect1_dropShadow_2397_20" result="shape"/>
</filter>
</defs>
</svg>
