<svg width="392" height="377" viewBox="0 0 392 377" fill="none" xmlns="http://www.w3.org/2000/svg">
<g filter="url(#filter0_d_2405_56)">
<ellipse cx="196" cy="184.5" rx="192" ry="184.5" fill="#FBF5E7"/>
</g>
<g filter="url(#filter1_d_2405_56)">
<path d="M133.951 121.373C141.11 121.37 147.95 122.54 154.471 124.881C160.992 127.179 166.81 130.863 171.925 135.932C177.041 140.959 181.071 147.583 184.014 155.807C186.958 164.03 188.432 174.065 188.436 185.911C188.483 196.821 187.209 206.601 184.613 215.252C182.017 223.861 178.291 231.192 173.435 237.246C168.622 243.299 162.829 247.924 156.054 251.123C149.28 254.279 141.717 255.859 133.364 255.862C124.16 255.866 116.041 254.1 109.009 250.566C102.019 246.989 96.4131 242.176 92.1919 236.127C88.0134 230.077 85.5179 223.303 84.7053 215.803L115.835 215.791C116.816 220.137 118.884 223.417 122.039 225.632C125.193 227.804 128.965 228.889 133.354 228.888C141.365 228.885 147.351 225.409 151.311 218.462C155.272 211.514 157.25 202.074 157.245 190.142L156.478 190.143C154.647 194.064 152.049 197.431 148.684 200.245C145.361 203.059 141.505 205.213 137.116 206.706C132.728 208.199 128.105 208.947 123.247 208.948C115.406 208.952 108.48 207.164 102.47 203.587C96.503 200.01 91.8136 195.09 88.4021 188.827C85.0331 182.564 83.3258 175.406 83.28 167.352C83.2338 158.318 85.3401 150.348 89.5987 143.443C93.8574 136.495 99.7998 131.081 107.426 127.2C115.052 123.277 123.894 121.335 133.951 121.373ZM134.152 145.663C130.232 145.664 126.738 146.582 123.67 148.416C120.645 150.249 118.26 152.722 116.514 155.833C114.768 158.945 113.917 162.439 113.961 166.317C114.006 170.195 114.88 173.689 116.586 176.799C118.335 179.909 120.701 182.38 123.684 184.211C126.711 186.042 130.163 186.957 134.041 186.956C136.938 186.954 139.623 186.421 142.094 185.354C144.565 184.288 146.716 182.817 148.548 180.941C150.38 179.023 151.806 176.807 152.828 174.292C153.893 171.777 154.403 169.092 154.359 166.237C154.315 162.445 153.419 158.993 151.67 155.883C149.922 152.773 147.513 150.303 144.444 148.471C141.418 146.598 137.987 145.661 134.152 145.663ZM205.834 254.044L205.825 231.288L253.557 189.465C257.135 186.225 260.181 183.263 262.694 180.577C265.207 177.849 267.124 175.121 268.444 172.393C269.764 169.622 270.423 166.618 270.422 163.379C270.42 159.757 269.631 156.668 268.053 154.112C266.475 151.513 264.301 149.511 261.531 148.106C258.76 146.701 255.585 145.999 252.006 146C248.383 146.002 245.209 146.749 242.482 148.241C239.756 149.691 237.626 151.801 236.093 154.572C234.602 157.342 233.858 160.709 233.86 164.672L203.881 164.684C203.877 155.778 205.877 148.085 209.88 141.606C213.883 135.127 219.507 130.139 226.749 126.642C234.035 123.102 242.493 121.331 252.124 121.327C262.053 121.323 270.683 122.981 278.014 126.302C285.344 129.623 291.014 134.266 295.022 140.23C299.072 146.152 301.099 153.033 301.102 160.874C301.104 165.86 300.105 170.804 298.104 175.705C296.103 180.606 292.504 186.02 287.308 191.945C282.154 197.87 274.827 204.968 265.327 213.239L249.673 227.691L249.673 228.522L302.727 228.502L302.737 254.006L205.834 254.044Z" fill="black"/>
</g>
<path d="M276.793 81.9701L271.6 79.1021L292.171 60.5539L298.415 64.0029L293.657 91.2849L288.465 88.4169L292.49 67.565L292.311 67.4661L276.793 81.9701ZM281.444 72.7825L293.709 79.5569L291.62 83.3393L279.355 76.5649L281.444 72.7825Z" fill="black"/>
<path d="M257.173 54.4318C257.184 53.7845 257.105 53.1852 256.935 52.634C256.768 52.0747 256.509 51.5674 256.158 51.1123C255.818 50.6515 255.389 50.2482 254.871 49.9023C254.361 49.5589 253.764 49.2823 253.079 49.0726C251.8 48.6806 250.578 48.6539 249.414 48.9924C248.257 49.3334 247.224 50.0286 246.314 51.078C245.407 52.1192 244.686 53.5117 244.152 55.2556C243.618 56.9994 243.428 58.5637 243.583 59.9483C243.738 61.3329 244.202 62.4956 244.975 63.4365C245.75 64.3692 246.797 65.0378 248.117 65.4423C249.315 65.8093 250.403 65.9108 251.38 65.7467C252.368 65.577 253.206 65.1696 253.894 64.5246C254.59 63.8822 255.101 63.0272 255.428 61.9597L256.455 62.4482L250.001 60.4708L251.222 56.486L261.698 59.6955L260.731 62.8491C260.057 65.0493 259.014 66.7975 257.6 68.0938C256.189 69.3819 254.538 70.204 252.646 70.5603C250.757 70.9085 248.761 70.7604 246.658 70.1163C244.312 69.3972 242.408 68.2481 240.949 66.6689C239.492 65.0816 238.56 63.1781 238.153 60.9586C237.756 58.7333 237.962 56.3006 238.771 53.6604C239.393 51.6313 240.24 49.9122 241.314 48.5029C242.398 47.088 243.644 45.99 245.051 45.2088C246.458 44.4276 247.959 43.965 249.554 43.8209C251.149 43.6767 252.774 43.8581 254.428 44.3649C255.846 44.7993 257.102 45.4116 258.197 46.2017C259.295 46.9837 260.201 47.8943 260.917 48.9336C261.641 49.9754 262.146 51.1061 262.431 52.3258C262.72 53.5373 262.76 54.7886 262.552 56.0796L257.173 54.4318Z" fill="black"/>
<path d="M205.873 61.8134L208.776 35.793L226.309 37.7492L225.803 42.2849L213.771 40.9425L213.08 47.1427L224.209 48.3845L223.703 52.9202L212.573 51.6785L211.88 57.8914L223.963 59.2394L223.457 63.7752L205.873 61.8134Z" fill="black"/>
<path d="M177.39 61.851L168.131 62.497L166.309 36.3786L175.644 35.7273C178.272 35.544 180.57 35.9091 182.538 36.8226C184.507 37.7275 186.069 39.1179 187.225 40.9937C188.39 42.8689 189.067 45.1626 189.256 47.8747C189.446 50.5954 189.094 52.9693 188.202 54.9966C187.318 57.0233 185.956 58.6262 184.116 59.8054C182.285 60.984 180.043 61.6659 177.39 61.851ZM173.323 57.3803L176.83 57.1356C178.463 57.0217 179.816 56.6368 180.889 55.981C181.971 55.316 182.749 54.3518 183.225 53.0884C183.708 51.8159 183.882 50.2061 183.746 48.2591C183.612 46.3292 183.217 44.7719 182.562 43.5873C181.915 42.4022 181.015 41.5594 179.861 41.059C178.707 40.5586 177.314 40.3653 175.681 40.4792L172.161 40.7248L173.323 57.3803Z" fill="black"/>
<path d="M140.803 41.1049L146.139 39.6321L150.663 56.022C151.171 57.8622 151.176 59.5938 150.678 61.2166C150.188 62.8372 149.265 64.2502 147.909 65.4556C146.551 66.6528 144.829 67.5394 142.742 68.1154C140.647 68.6936 138.709 68.8173 136.929 68.4864C135.147 68.1473 133.63 67.4078 132.378 66.268C131.126 65.1282 130.246 63.6382 129.738 61.7979L125.214 45.408L130.55 43.9351L134.948 59.869C135.214 60.8302 135.659 61.6268 136.284 62.2588C136.918 62.8885 137.68 63.3103 138.57 63.5244C139.46 63.7384 140.419 63.7037 141.446 63.4202C142.481 63.1345 143.322 62.6726 143.968 62.0345C144.622 61.3941 145.055 60.6423 145.268 59.779C145.489 58.9135 145.467 58.0001 145.201 57.0389L140.803 41.1049Z" fill="black"/>
<path d="M99.6676 85.0422L87.9744 61.6167L97.3537 56.9348C99.0771 56.0746 100.642 55.6125 102.048 55.5487C103.455 55.4848 104.674 55.762 105.707 56.3801C106.736 56.9906 107.543 57.8831 108.129 59.0574C108.586 59.9724 108.805 60.8683 108.785 61.7449C108.762 62.6139 108.54 63.4294 108.12 64.1914C107.704 64.942 107.134 65.6125 106.409 66.2028L106.524 66.4315C107.435 66.0243 108.395 65.8592 109.405 65.9361C110.423 66.0092 111.385 66.3433 112.292 66.9385C113.195 67.5261 113.934 68.3956 114.508 69.547C115.129 70.79 115.374 72.0536 115.243 73.338C115.117 74.611 114.596 75.8284 113.68 76.9903C112.765 78.1522 111.43 79.1709 109.676 80.0463L99.6676 85.0422ZM102.599 78.5208L106.637 76.5054C108.017 75.8164 108.892 75.0509 109.263 74.2088C109.629 73.3591 109.592 72.4919 109.15 71.6074C108.826 70.9592 108.385 70.4653 107.825 70.1257C107.265 69.7861 106.624 69.6199 105.904 69.627C105.191 69.6304 104.438 69.83 103.645 70.2258L99.4932 72.2984L102.599 78.5208ZM97.8202 68.947L101.492 67.1142C102.171 66.7755 102.714 66.3566 103.122 65.8575C103.534 65.3471 103.782 64.7946 103.867 64.2C103.958 63.6017 103.85 62.9937 103.542 62.376C103.119 61.5296 102.477 60.9975 101.616 60.7796C100.763 60.558 99.7867 60.7213 98.6887 61.2694L94.9255 63.1478L97.8202 68.947Z" fill="black"/>
<defs>
<filter id="filter0_d_2405_56" x="0" y="0" width="392" height="377" filterUnits="userSpaceOnUse" color-interpolation-filters="sRGB">
<feFlood flood-opacity="0" result="BackgroundImageFix"/>
<feColorMatrix in="SourceAlpha" type="matrix" values="0 0 0 0 0 0 0 0 0 0 0 0 0 0 0 0 0 0 127 0" result="hardAlpha"/>
<feOffset dy="4"/>
<feGaussianBlur stdDeviation="2"/>
<feComposite in2="hardAlpha" operator="out"/>
<feColorMatrix type="matrix" values="0 0 0 0 0 0 0 0 0 0 0 0 0 0 0 0 0 0 0.25 0"/>
<feBlend mode="normal" in2="BackgroundImageFix" result="effect1_dropShadow_2405_56"/>
<feBlend mode="normal" in="SourceGraphic" in2="effect1_dropShadow_2405_56" result="shape"/>
</filter>
<filter id="filter1_d_2405_56" x="79.1982" y="121.243" width="227.54" height="142.639" filterUnits="userSpaceOnUse" color-interpolation-filters="sRGB">
<feFlood flood-opacity="0" result="BackgroundImageFix"/>
<feColorMatrix in="SourceAlpha" type="matrix" values="0 0 0 0 0 0 0 0 0 0 0 0 0 0 0 0 0 0 127 0" result="hardAlpha"/>
<feOffset dy="4"/>
<feGaussianBlur stdDeviation="2"/>
<feComposite in2="hardAlpha" operator="out"/>
<feColorMatrix type="matrix" values="0 0 0 0 0 0 0 0 0 0 0 0 0 0 0 0 0 0 0.25 0"/>
<feBlend mode="normal" in2="BackgroundImageFix" result="effect1_dropShadow_2405_56"/>
<feBlend mode="normal" in="SourceGraphic" in2="effect1_dropShadow_2405_56" result="shape"/>
</filter>
</defs>
</svg>
