<svg width="506" height="505" viewBox="0 0 506 505" fill="none" xmlns="http://www.w3.org/2000/svg">
<path d="M503.887 254.865C502.761 392.932 389.7 503.943 251.357 502.815C113.014 501.687 1.77768 388.847 2.9033 250.781C4.02891 112.714 117.09 1.70338 255.433 2.83125C393.776 3.95912 505.012 116.799 503.887 254.865Z" fill="#D9D9D9"/>
<path d="M128.11 101.804L105.512 75.0779L116.411 65.8986C118.048 65.3046 119.835 65.1724 121.772 65.5019C123.71 65.8314 125.367 66.8106 126.745 68.4397C129.177 71.316 129.934 74.1213 129.015 76.8556L129.145 77.0084C132.588 76.3311 135.482 77.3797 137.828 80.1541C140.519 83.3359 141.117 87.3211 139.622 92.1098L128.11 101.804ZM120.043 81.7319L123.829 78.5432C124.37 76.9112 124.048 75.3952 122.865 73.9953C121.681 72.5953 120.222 71.9282 118.488 71.9941L114.587 75.2793L120.043 81.7319ZM129.567 92.9952L133.506 89.6777C133.685 88.9603 133.652 88.095 133.406 87.0817C133.186 86.0469 132.774 85.1731 132.172 84.4604C131.569 83.7477 130.867 83.2275 130.066 82.8997C129.265 82.5719 128.517 82.4613 127.821 82.5678L123.691 86.0463L129.567 92.9952Z" fill="black"/>
<path d="M177.386 65.4424L181.193 63.669C181.519 62.6347 181.648 61.6919 181.581 60.8405C181.53 59.9449 181.166 58.7725 180.488 57.3231L170.681 36.3532L176.89 33.4609L185.638 52.1662C186.359 53.7061 186.878 54.935 187.197 55.8529C187.532 56.7265 187.838 57.8526 188.115 59.2313C188.632 61.6748 188.186 64.4197 186.777 67.4661L176.715 72.1529C173.499 71.3344 171.105 69.9126 169.532 67.8873C168.217 66.2565 166.938 64.1126 165.696 61.4555L156.947 42.7502L163.157 39.8578L172.964 60.8277C173.642 62.2771 174.294 63.3158 174.919 63.944C175.56 64.5279 176.382 65.0274 177.386 65.4424Z" fill="black"/>
<path d="M228.662 52.3097L233.101 51.5719C233.83 50.2682 234.273 48.4712 234.432 46.1809C234.623 43.8851 234.538 41.6522 234.176 39.4822C233.314 34.3203 231.716 30.7169 229.381 28.672L224.843 29.4261L228.662 52.3097ZM222.909 59.1453L217.147 24.6228L231.451 22.2457C236.812 25.6124 240.085 30.8466 241.27 37.9484C242.45 45.0173 241.245 51.266 237.656 56.6945L222.909 59.1453Z" fill="black"/>
<path d="M275.555 58.0424L279.08 23.2204L296.939 25.0217L296.335 30.9912L285.291 29.8773L284.45 38.1848L294.3 39.1783L293.716 44.9488L283.866 43.9553L282.954 52.9593L294.197 54.0933L293.613 59.8638L275.555 58.0424Z" fill="black"/>
<path d="M338.355 75.0818L328.403 71.4325C326.909 68.5417 326.17 65.4836 326.185 62.2584C326.2 59.0331 326.778 55.872 327.918 52.7752C329.07 49.6471 330.83 46.7954 333.199 44.2202C335.567 41.6449 338.218 39.8477 341.151 38.8283L352.558 43.0112L350.485 48.6418L341.754 45.4401C340.595 46.0802 339.344 47.3078 338 49.123C336.669 50.907 335.583 52.9407 334.742 55.2242C333.913 57.4765 333.384 59.7324 333.156 61.9921C332.971 64.2319 333.119 65.9546 333.598 67.1601L338.105 68.8126L342.803 56.0499L349 58.3221L346.098 66.2049C344.509 70.5217 341.928 73.4807 338.355 75.0818Z" fill="black"/>
<path d="M380.612 102.474L382.961 97.3396L376.505 92.7869L372.44 96.7116L366.882 92.7928L392.622 68.1169L401.081 74.0815L386.088 106.336L380.612 102.474ZM392.912 76.2746L384.587 84.6592L380.25 88.8815L385.358 92.4833L387.856 86.9643L392.994 76.3322L392.912 76.2746Z" fill="black"/>
<path d="M503.898 252.816C503.898 390.888 391.746 502.816 253.398 502.816C115.051 502.816 2.89844 390.888 2.89844 252.816C2.89844 114.745 115.051 2.81641 253.398 2.81641C391.746 2.81641 503.898 114.745 503.898 252.816Z" fill="#DAA520"/>
<path d="M126.887 102.824L104.071 76.2828L114.895 67.015C116.527 66.4077 118.313 66.2609 120.253 66.5745C122.193 66.8882 123.859 67.8539 125.249 69.4717C127.705 72.3281 128.484 75.1271 127.588 77.8689L127.719 78.0205C131.156 77.3152 134.06 78.3401 136.428 81.0954C139.144 84.2551 139.774 88.2353 138.319 93.036L126.887 102.824ZM118.656 82.8181L122.416 79.5987C122.943 77.9623 122.61 76.449 121.415 75.0587C120.219 73.6685 118.755 73.0133 117.022 73.0933L113.148 76.4102L118.656 82.8181ZM128.271 94.0034L132.183 90.6539C132.356 89.9351 132.316 89.07 132.062 88.0588C131.834 87.0258 131.415 86.1554 130.807 85.4477C130.198 84.7399 129.492 84.2254 128.689 83.9042C127.885 83.5829 127.136 83.4784 126.441 83.5906L122.339 87.1026L128.271 94.0034Z" fill="black"/>
<path d="M175.864 66.0621L179.656 64.2577C179.974 63.2208 180.095 62.277 180.022 61.4262C179.963 60.531 179.589 59.3616 178.9 57.9178L168.922 37.0286L175.107 34.0857L184.008 52.7191C184.741 54.2531 185.27 55.4777 185.597 56.3929C185.939 57.2638 186.254 58.3874 186.542 59.7638C187.079 62.2029 186.655 64.9514 185.272 68.0091L175.248 72.7779C172.025 71.9856 169.619 70.5833 168.03 68.5709C166.702 66.951 165.406 64.8175 164.142 62.1707L155.241 43.5373L161.427 40.5944L171.405 61.4837C172.094 62.9274 172.754 63.9608 173.384 64.5839C174.03 65.1625 174.857 65.6553 175.864 66.0621Z" fill="black"/>
<path d="M227.031 52.5113L231.464 51.7374C232.182 50.4277 232.611 48.6271 232.751 46.3356C232.923 44.0384 232.82 41.8063 232.44 39.6393C231.536 34.4845 229.909 30.8943 227.557 28.8685L223.025 29.6596L227.031 52.5113ZM221.333 59.3936L215.291 24.9191L229.575 22.4255C234.963 25.7484 238.278 30.9558 239.521 38.0477C240.759 45.1068 239.605 51.3651 236.061 56.8226L221.333 59.3936Z" fill="black"/>
<path d="M273.968 57.8624L277.209 23.0128L295.083 24.6684L294.527 30.6426L283.475 29.6188L282.701 37.9329L292.559 38.846L292.022 44.6211L282.164 43.708L281.326 52.7191L292.578 53.7614L292.041 59.5365L273.968 57.8624Z" fill="black"/>
<path d="M336.905 74.3892L326.924 70.8212C325.407 67.9427 324.643 64.8908 324.632 61.6655C324.62 58.4402 325.172 55.2745 326.287 52.1685C327.413 49.0311 329.15 46.1652 331.498 43.5707C333.845 40.9763 336.481 39.1574 339.406 38.1142L350.847 42.204L348.82 47.8513L340.063 44.7209C338.909 45.3703 337.668 46.6082 336.339 48.4343C335.022 50.229 333.953 52.2715 333.131 54.5618C332.32 56.8208 331.81 59.0809 331.6 61.3424C331.434 63.5836 331.595 65.3051 332.084 66.5066L336.604 68.1223L341.198 55.3218L347.413 57.5434L344.576 65.4496C343.022 69.7792 340.465 72.7591 336.905 74.3892Z" fill="black"/>
<path d="M379.384 101.438L381.691 96.2841L375.198 91.7842L371.165 95.7419L365.576 91.8685L391.114 66.9836L399.621 72.879L384.891 105.254L379.384 101.438ZM391.47 75.1387L383.214 83.5909L378.911 87.8484L384.048 91.4084L386.501 85.8693L391.552 75.1956L391.47 75.1387Z" fill="black"/>
<g filter="url(#filter0_d_2562_3675)">
<ellipse cx="254.365" cy="256.497" rx="175.5" ry="175" transform="rotate(0.467105 254.365 256.497)" fill="black"/>
<path d="M252.91 434.991C351.756 435.797 432.556 356.545 433.359 257.956C434.163 159.368 354.667 78.809 255.821 78.0031C156.974 77.1973 76.1751 156.449 75.3713 255.038C74.5675 353.627 154.064 434.185 252.91 434.991Z" stroke="white" stroke-width="7" stroke-linecap="square" stroke-linejoin="bevel"/>
</g>
<path d="M380.539 401.66L403.355 428.202L392.53 437.469C390.898 438.077 389.113 438.224 387.173 437.91C385.233 437.596 383.567 436.63 382.177 435.013C379.721 432.156 378.941 429.357 379.837 426.616L379.707 426.464C376.269 427.169 373.366 426.144 370.998 423.389C368.282 420.229 367.651 416.249 369.107 411.448L380.539 401.66ZM388.77 421.666L385.01 424.886C384.482 426.522 384.816 428.035 386.011 429.426C387.206 430.816 388.671 431.471 390.404 431.391L394.278 428.074L388.77 421.666ZM379.155 410.481L375.243 413.83C375.069 414.549 375.11 415.414 375.364 416.426C375.592 417.459 376.011 418.329 376.619 419.037C377.228 419.744 377.934 420.259 378.737 420.58C379.541 420.901 380.29 421.006 380.985 420.894L385.087 417.382L379.155 410.481Z" fill="black"/>
<path d="M331.562 438.422L327.769 440.227C327.452 441.264 327.33 442.207 327.404 443.058C327.462 443.953 327.836 445.123 328.526 446.567L338.504 467.456L332.318 470.399L323.418 451.765C322.685 450.231 322.156 449.007 321.829 448.091C321.487 447.221 321.172 446.097 320.884 444.721C320.347 442.281 320.77 439.533 322.154 436.475L332.178 431.706C335.4 432.499 337.807 433.901 339.396 435.913C340.724 437.533 342.02 439.667 343.284 442.314L352.185 460.947L345.999 463.89L336.021 443.001C335.331 441.557 334.671 440.524 334.041 439.9C333.396 439.322 332.569 438.829 331.562 438.422Z" fill="black"/>
<path d="M280.395 451.973L275.962 452.747C275.244 454.057 274.815 455.857 274.675 458.149C274.503 460.446 274.606 462.678 274.986 464.845C275.89 470 277.517 473.59 279.869 475.616L284.4 474.825L280.395 451.973ZM286.092 445.091L292.135 479.565L277.851 482.059C272.463 478.736 269.147 473.529 267.904 466.437C266.667 459.378 267.821 453.119 271.365 447.662L286.092 445.091Z" fill="black"/>
<path d="M233.457 446.622L230.216 481.472L212.343 479.816L212.898 473.842L223.951 474.866L224.724 466.551L214.867 465.638L215.404 459.863L225.261 460.776L226.099 451.765L214.848 450.723L215.385 444.948L233.457 446.622Z" fill="black"/>
<path d="M170.521 430.095L180.502 433.663C182.019 436.542 182.783 439.594 182.794 442.819C182.805 446.044 182.254 449.21 181.139 452.316C180.013 455.453 178.276 458.319 175.928 460.914C173.58 463.508 170.944 465.327 168.02 466.37L156.579 462.28L158.606 456.633L167.363 459.764C168.517 459.114 169.758 457.876 171.086 456.05C172.403 454.255 173.473 452.213 174.295 449.923C175.106 447.664 175.616 445.403 175.825 443.142C175.992 440.901 175.831 439.179 175.341 437.978L170.821 436.362L166.227 449.163L160.013 446.941L162.85 439.035C164.404 434.705 166.961 431.725 170.521 430.095Z" fill="black"/>
<path d="M128.042 403.046L125.735 408.2L132.228 412.7L136.261 408.743L141.85 412.616L116.312 437.501L107.805 431.605L122.535 399.23L128.042 403.046ZM115.956 429.346L124.212 420.894L128.515 416.636L123.378 413.076L120.925 418.615L115.874 429.289L115.956 429.346Z" fill="black"/>
<g filter="url(#filter1_d_2562_3675)">
<mask id="path-23-outside-1_2562_3675" maskUnits="userSpaceOnUse" x="140.541" y="184.67" width="230.057" height="145.09" fill="black">
<rect fill="white" x="140.541" y="184.67" width="230.057" height="145.09"/>
<path d="M196.478 190.04C203.637 190.037 210.477 191.206 216.998 193.547C223.519 195.846 229.337 199.53 234.453 204.599C239.568 209.625 243.598 216.25 246.541 224.473C249.485 232.696 250.959 242.731 250.964 254.578C251.011 265.487 249.736 275.267 247.14 283.919C244.544 292.528 240.818 299.859 235.963 305.912C231.15 311.965 225.356 316.591 218.582 319.79C211.807 322.946 204.244 324.525 195.892 324.529C186.687 324.532 178.569 322.767 171.536 319.233C164.546 315.656 158.94 310.843 154.719 304.793C150.541 298.744 148.045 291.969 147.233 284.47L178.362 284.457C179.344 288.804 181.412 292.084 184.566 294.299C187.72 296.471 191.492 297.556 195.881 297.554C203.893 297.551 209.878 294.076 213.839 287.128C217.799 280.181 219.777 270.741 219.772 258.809L219.005 258.809C217.174 262.73 214.576 266.098 211.211 268.912C207.888 271.726 204.032 273.879 199.644 275.372C195.255 276.865 190.632 277.613 185.774 277.615C177.933 277.618 171.008 275.831 164.998 272.254C159.03 268.677 154.341 263.757 150.929 257.494C147.56 251.231 145.853 244.072 145.807 236.018C145.761 226.984 147.867 219.015 152.126 212.11C156.385 205.162 162.327 199.748 169.954 195.867C177.58 191.943 186.421 190.001 196.478 190.04ZM196.68 214.329C192.759 214.331 189.265 215.249 186.198 217.082C183.173 218.916 180.787 221.388 179.041 224.5C177.296 227.611 176.445 231.106 176.489 234.984C176.533 238.861 177.408 242.355 179.114 245.466C180.862 248.576 183.228 251.046 186.212 252.878C189.238 254.709 192.69 255.624 196.568 255.622C199.466 255.621 202.15 255.087 204.621 254.021C207.092 252.955 209.244 251.484 211.075 249.608C212.907 247.69 214.334 245.473 215.356 242.958C216.42 240.444 216.93 237.759 216.886 234.904C216.842 231.111 215.946 227.66 214.198 224.55C212.449 221.44 210.041 218.969 206.972 217.138C203.946 215.264 200.515 214.328 196.68 214.329ZM268.361 322.71L268.352 299.955L316.084 258.132C319.662 254.892 322.708 251.929 325.221 249.243C327.734 246.515 329.651 243.787 330.971 241.059C332.291 238.289 332.95 235.284 332.949 232.046C332.947 228.424 332.158 225.334 330.58 222.778C329.002 220.179 326.828 218.177 324.058 216.772C321.288 215.367 318.113 214.665 314.533 214.667C310.911 214.668 307.736 215.415 305.01 216.908C302.283 218.358 300.153 220.468 298.62 223.238C297.13 226.009 296.385 229.376 296.387 233.339L266.408 233.35C266.405 224.444 268.405 216.752 272.408 210.273C276.411 203.794 282.034 198.806 289.277 195.309C296.562 191.769 305.02 189.997 314.651 189.993C324.58 189.989 333.21 191.648 340.541 194.969C347.872 198.29 353.541 202.933 357.549 208.897C361.6 214.819 363.627 221.7 363.63 229.541C363.632 234.527 362.632 239.47 360.631 244.372C358.63 249.273 355.032 254.686 349.835 260.612C344.681 266.537 337.354 273.635 327.855 281.906L312.2 296.358L312.2 297.189L365.254 297.168L365.264 322.672L268.361 322.71Z"/>
</mask>
<path d="M196.478 190.04C203.637 190.037 210.477 191.206 216.998 193.547C223.519 195.846 229.337 199.53 234.453 204.599C239.568 209.625 243.598 216.25 246.541 224.473C249.485 232.696 250.959 242.731 250.964 254.578C251.011 265.487 249.736 275.267 247.14 283.919C244.544 292.528 240.818 299.859 235.963 305.912C231.15 311.965 225.356 316.591 218.582 319.79C211.807 322.946 204.244 324.525 195.892 324.529C186.687 324.532 178.569 322.767 171.536 319.233C164.546 315.656 158.94 310.843 154.719 304.793C150.541 298.744 148.045 291.969 147.233 284.47L178.362 284.457C179.344 288.804 181.412 292.084 184.566 294.299C187.72 296.471 191.492 297.556 195.881 297.554C203.893 297.551 209.878 294.076 213.839 287.128C217.799 280.181 219.777 270.741 219.772 258.809L219.005 258.809C217.174 262.73 214.576 266.098 211.211 268.912C207.888 271.726 204.032 273.879 199.644 275.372C195.255 276.865 190.632 277.613 185.774 277.615C177.933 277.618 171.008 275.831 164.998 272.254C159.03 268.677 154.341 263.757 150.929 257.494C147.56 251.231 145.853 244.072 145.807 236.018C145.761 226.984 147.867 219.015 152.126 212.11C156.385 205.162 162.327 199.748 169.954 195.867C177.58 191.943 186.421 190.001 196.478 190.04ZM196.68 214.329C192.759 214.331 189.265 215.249 186.198 217.082C183.173 218.916 180.787 221.388 179.041 224.5C177.296 227.611 176.445 231.106 176.489 234.984C176.533 238.861 177.408 242.355 179.114 245.466C180.862 248.576 183.228 251.046 186.212 252.878C189.238 254.709 192.69 255.624 196.568 255.622C199.466 255.621 202.15 255.087 204.621 254.021C207.092 252.955 209.244 251.484 211.075 249.608C212.907 247.69 214.334 245.473 215.356 242.958C216.42 240.444 216.93 237.759 216.886 234.904C216.842 231.111 215.946 227.66 214.198 224.55C212.449 221.44 210.041 218.969 206.972 217.138C203.946 215.264 200.515 214.328 196.68 214.329ZM268.361 322.71L268.352 299.955L316.084 258.132C319.662 254.892 322.708 251.929 325.221 249.243C327.734 246.515 329.651 243.787 330.971 241.059C332.291 238.289 332.95 235.284 332.949 232.046C332.947 228.424 332.158 225.334 330.58 222.778C329.002 220.179 326.828 218.177 324.058 216.772C321.288 215.367 318.113 214.665 314.533 214.667C310.911 214.668 307.736 215.415 305.01 216.908C302.283 218.358 300.153 220.468 298.62 223.238C297.13 226.009 296.385 229.376 296.387 233.339L266.408 233.35C266.405 224.444 268.405 216.752 272.408 210.273C276.411 203.794 282.034 198.806 289.277 195.309C296.562 191.769 305.02 189.997 314.651 189.993C324.58 189.989 333.21 191.648 340.541 194.969C347.872 198.29 353.541 202.933 357.549 208.897C361.6 214.819 363.627 221.7 363.63 229.541C363.632 234.527 362.632 239.47 360.631 244.372C358.63 249.273 355.032 254.686 349.835 260.612C344.681 266.537 337.354 273.635 327.855 281.906L312.2 296.358L312.2 297.189L365.254 297.168L365.264 322.672L268.361 322.71Z" fill="white"/>
<path d="M196.478 190.04L196.459 195.04L196.47 195.04L196.48 195.04L196.478 190.04ZM216.998 193.547L215.308 198.253L215.322 198.258L215.336 198.263L216.998 193.547ZM234.453 204.599L230.933 208.15L230.941 208.158L230.948 208.165L234.453 204.599ZM246.541 224.473L241.834 226.158L241.834 226.158L246.541 224.473ZM250.964 254.578L245.964 254.58L245.964 254.59L245.964 254.599L250.964 254.578ZM247.14 283.919L251.927 285.363L251.929 285.356L247.14 283.919ZM235.963 305.912L232.062 302.783L232.056 302.792L232.049 302.8L235.963 305.912ZM218.582 319.79L220.693 324.322L220.705 324.316L220.717 324.311L218.582 319.79ZM171.536 319.233L169.258 323.684L169.275 323.692L169.291 323.7L171.536 319.233ZM154.719 304.793L150.605 307.635L150.612 307.645L150.619 307.654L154.719 304.793ZM147.233 284.47L147.231 279.47L141.662 279.472L142.262 285.008L147.233 284.47ZM178.362 284.457L183.239 283.356L182.358 279.456L178.36 279.457L178.362 284.457ZM184.566 294.299L181.693 298.391L181.712 298.404L181.73 298.417L184.566 294.299ZM213.839 287.128L218.183 289.604L218.183 289.604L213.839 287.128ZM219.772 258.809L224.772 258.807L224.77 253.807L219.77 253.809L219.772 258.809ZM219.005 258.809L219.003 253.809L215.821 253.811L214.475 256.694L219.005 258.809ZM211.211 268.912L208.004 265.076L207.992 265.086L207.98 265.096L211.211 268.912ZM199.644 275.372L198.033 270.639L198.033 270.639L199.644 275.372ZM164.998 272.254L162.427 276.542L162.434 276.546L162.44 276.55L164.998 272.254ZM150.929 257.494L146.526 259.862L146.532 259.874L146.539 259.885L150.929 257.494ZM145.807 236.018L140.807 236.044L140.807 236.047L145.807 236.018ZM152.126 212.11L156.382 214.734L156.389 214.723L152.126 212.11ZM169.954 195.867L172.221 200.323L172.231 200.318L172.241 200.313L169.954 195.867ZM186.198 217.082L183.632 212.79L183.619 212.798L183.606 212.806L186.198 217.082ZM179.041 224.5L174.681 222.053L174.681 222.053L179.041 224.5ZM176.489 234.984L181.488 234.927L181.488 234.927L176.489 234.984ZM179.114 245.466L174.73 247.87L174.742 247.893L174.755 247.916L179.114 245.466ZM186.212 252.878L183.596 257.139L183.61 257.147L183.623 257.155L186.212 252.878ZM204.621 254.021L206.602 258.612L206.602 258.612L204.621 254.021ZM211.075 249.608L214.653 253.101L214.672 253.081L214.692 253.061L211.075 249.608ZM215.356 242.958L210.751 241.01L210.737 241.043L210.723 241.076L215.356 242.958ZM216.886 234.904L211.887 234.962L211.887 234.971L211.887 234.98L216.886 234.904ZM214.198 224.55L209.839 227L209.839 227L214.198 224.55ZM206.972 217.138L204.34 221.389L204.375 221.411L204.41 221.432L206.972 217.138ZM196.48 195.04C203.082 195.037 209.348 196.113 215.308 198.253L218.688 188.841C211.606 186.299 204.192 185.037 196.476 185.04L196.48 195.04ZM215.336 198.263C221.13 200.305 226.321 203.58 230.933 208.15L237.972 201.047C232.353 195.48 225.908 191.386 218.66 188.832L215.336 198.263ZM230.948 208.165C235.422 212.561 239.09 218.493 241.834 226.158L251.249 222.788C248.106 214.007 243.715 206.69 237.957 201.032L230.948 208.165ZM241.834 226.158C244.529 233.687 245.959 243.116 245.964 254.58L255.964 254.576C255.959 242.347 254.441 231.706 251.249 222.788L241.834 226.158ZM245.964 254.599C246.009 265.114 244.779 274.39 242.351 282.482L251.929 285.356C254.693 276.145 256.012 265.861 255.964 254.556L245.964 254.599ZM242.353 282.475C239.913 290.567 236.459 297.303 232.062 302.783L239.863 309.041C245.178 302.415 249.175 294.489 251.927 285.363L242.353 282.475ZM232.049 302.8C227.697 308.273 222.505 312.408 216.447 315.268L220.717 324.311C228.207 320.774 234.602 315.657 239.876 309.024L232.049 302.8ZM216.47 315.257C210.43 318.071 203.599 319.526 195.89 319.529L195.894 329.529C204.889 329.525 213.184 327.82 220.693 324.322L216.47 315.257ZM195.89 319.529C187.334 319.532 180.008 317.894 173.781 314.765L169.291 323.7C177.13 327.64 186.041 329.532 195.894 329.529L195.89 319.529ZM173.814 314.782C167.504 311.553 162.542 307.267 158.82 301.932L150.619 307.654C155.338 314.418 161.588 319.759 169.258 323.684L173.814 314.782ZM158.833 301.952C155.14 296.605 152.929 290.626 152.204 283.931L142.262 285.008C143.161 293.312 145.941 300.883 150.605 307.635L158.833 301.952ZM147.235 289.47L178.364 289.457L178.36 279.457L147.231 279.47L147.235 289.47ZM173.485 285.559C174.695 290.915 177.365 295.352 181.693 298.391L187.439 290.207C185.458 288.816 183.993 286.692 183.239 283.356L173.485 285.559ZM181.73 298.417C185.837 301.245 190.633 302.556 195.883 302.554L195.879 292.554C192.351 292.556 189.604 291.697 187.402 290.181L181.73 298.417ZM195.883 302.554C205.686 302.55 213.331 298.115 218.183 289.604L209.495 284.652C206.426 290.036 202.099 292.552 195.879 292.554L195.883 302.554ZM218.183 289.604C222.734 281.619 224.777 271.212 224.772 258.807L214.772 258.811C214.777 270.27 212.864 278.742 209.495 284.652L218.183 289.604ZM219.77 253.809L219.003 253.809L219.007 263.809L219.774 263.809L219.77 253.809ZM214.475 256.694C212.958 259.942 210.815 262.725 208.004 265.076L214.418 272.748C218.337 269.471 221.391 265.519 223.536 260.925L214.475 256.694ZM207.98 265.096C205.165 267.48 201.868 269.334 198.033 270.639L201.254 280.106C206.197 278.424 210.611 275.972 214.442 272.727L207.98 265.096ZM198.033 270.639C194.187 271.947 190.109 272.613 185.772 272.615L185.776 282.615C191.155 282.613 196.323 281.784 201.254 280.106L198.033 270.639ZM185.772 272.615C178.72 272.618 172.7 271.02 167.555 267.957L162.44 276.55C169.315 280.642 177.146 282.618 185.776 282.615L185.772 272.615ZM167.568 267.965C162.386 264.859 158.316 260.602 155.32 255.102L146.539 259.885C150.366 266.911 155.675 272.495 162.427 276.542L167.568 267.965ZM155.333 255.125C152.4 249.672 150.849 243.336 150.807 235.99L140.807 236.047C140.857 244.808 142.721 252.789 146.526 259.862L155.333 255.125ZM150.807 235.993C150.765 227.785 152.669 220.755 156.382 214.734L147.87 209.485C143.066 217.275 140.757 226.184 140.807 236.044L150.807 235.993ZM156.389 214.723C160.141 208.602 165.374 203.807 172.221 200.323L167.686 191.411C159.28 195.688 152.629 201.722 147.863 209.497L156.389 214.723ZM172.241 200.313C179.04 196.815 187.066 195.004 196.459 195.04L196.497 185.04C185.777 184.999 176.119 187.072 167.666 191.421L172.241 200.313ZM196.678 209.329C191.945 209.331 187.549 210.449 183.632 212.79L188.763 221.374C190.982 220.048 193.573 219.331 196.681 219.329L196.678 209.329ZM183.606 212.806C179.837 215.091 176.845 218.196 174.681 222.053L183.402 226.946C184.73 224.58 186.509 222.74 188.789 221.358L183.606 212.806ZM174.681 222.053C172.469 225.994 171.436 230.365 171.489 235.041L181.488 234.927C181.453 231.847 182.122 229.228 183.402 226.946L174.681 222.053ZM171.489 235.041C171.542 239.661 172.593 243.974 174.73 247.87L183.498 243.061C182.223 240.737 181.524 238.062 181.488 234.927L171.489 235.041ZM174.755 247.916C176.912 251.753 179.872 254.853 183.596 257.139L188.827 248.616C186.584 247.239 184.812 245.398 183.472 243.015L174.755 247.916ZM183.623 257.155C187.505 259.504 191.87 260.624 196.57 260.622L196.566 250.622C193.51 250.623 190.971 249.913 188.8 248.6L183.623 257.155ZM196.57 260.622C200.095 260.621 203.459 259.968 206.602 258.612L202.64 249.43C200.841 250.207 198.836 250.621 196.566 250.622L196.57 260.622ZM206.602 258.612C209.656 257.294 212.353 255.456 214.653 253.101L207.498 246.115C206.134 247.511 204.529 248.615 202.64 249.43L206.602 258.612ZM214.692 253.061C216.968 250.677 218.735 247.924 219.988 244.841L210.723 241.076C209.933 243.022 208.846 244.702 207.459 246.155L214.692 253.061ZM219.96 244.907C221.308 241.723 221.94 238.345 221.886 234.827L211.887 234.98C211.921 237.173 211.532 239.164 210.751 241.01L219.96 244.907ZM221.886 234.846C221.833 230.269 220.741 225.987 218.556 222.1L209.839 227C211.151 229.333 211.852 231.953 211.887 234.962L221.886 234.846ZM218.556 222.1C216.379 218.227 213.351 215.122 209.534 212.844L204.41 221.432C206.731 222.816 208.519 224.652 209.839 227L218.556 222.1ZM209.604 212.887C205.725 210.485 201.368 209.328 196.678 209.329L196.681 219.329C199.661 219.328 202.166 220.043 204.34 221.389L209.604 212.887ZM268.361 322.71L263.361 322.712L263.363 327.712L268.363 327.71L268.361 322.71ZM268.352 299.955L265.057 296.194L263.351 297.689L263.352 299.957L268.352 299.955ZM316.084 258.132L319.379 261.893L319.41 261.866L319.44 261.838L316.084 258.132ZM325.221 249.243L328.872 252.66L328.886 252.645L328.899 252.631L325.221 249.243ZM330.971 241.059L335.472 243.237L335.478 243.224L335.485 243.21L330.971 241.059ZM330.58 222.778L326.306 225.373L326.316 225.389L326.325 225.404L330.58 222.778ZM324.058 216.772L321.796 221.232L321.796 221.232L324.058 216.772ZM305.01 216.908L307.357 221.322L307.384 221.308L307.411 221.294L305.01 216.908ZM298.62 223.238L294.245 220.817L294.231 220.843L294.217 220.869L298.62 223.238ZM296.387 233.339L296.389 238.339L301.389 238.337L301.387 233.337L296.387 233.339ZM266.408 233.35L261.408 233.352L261.41 238.352L266.41 238.35L266.408 233.35ZM272.408 210.273L276.661 212.901L276.661 212.901L272.408 210.273ZM289.277 195.309L291.451 199.811L291.462 199.806L289.277 195.309ZM340.541 194.969L342.604 190.415L342.604 190.415L340.541 194.969ZM357.549 208.897L353.399 211.686L353.411 211.703L353.422 211.72L357.549 208.897ZM360.631 244.372L356.002 242.482L356.002 242.482L360.631 244.372ZM349.835 260.612L346.076 257.315L346.069 257.323L346.063 257.33L349.835 260.612ZM327.855 281.906L324.572 278.135L324.517 278.183L324.463 278.232L327.855 281.906ZM312.2 296.358L308.808 292.684L307.199 294.17L307.2 296.36L312.2 296.358ZM312.2 297.189L307.2 297.191L307.202 302.191L312.202 302.189L312.2 297.189ZM365.254 297.168L370.254 297.166L370.252 292.166L365.252 292.168L365.254 297.168ZM365.264 322.672L365.266 327.672L370.266 327.67L370.264 322.67L365.264 322.672ZM273.361 322.708L273.352 299.953L263.352 299.957L263.361 322.712L273.361 322.708ZM271.647 303.715L319.379 261.893L312.789 254.371L265.057 296.194L271.647 303.715ZM319.44 261.838C323.091 258.532 326.241 255.472 328.872 252.66L321.57 245.827C319.175 248.387 316.234 251.251 312.728 254.426L319.44 261.838ZM328.899 252.631C331.673 249.62 333.897 246.492 335.472 243.237L326.47 238.881C325.405 241.082 323.796 243.411 321.544 245.856L328.899 252.631ZM335.485 243.21C337.143 239.73 337.95 235.985 337.949 232.044L327.949 232.048C327.95 234.584 327.439 236.848 326.457 238.909L335.485 243.21ZM337.949 232.044C337.947 227.687 336.991 223.646 334.835 220.152L326.325 225.404C327.325 227.023 327.948 229.161 327.949 232.048L337.949 232.044ZM334.854 220.184C332.782 216.77 329.903 214.13 326.32 212.313L321.796 221.232C323.754 222.225 325.223 223.589 326.306 225.373L334.854 220.184ZM326.32 212.313C322.748 210.501 318.777 209.665 314.531 209.667L314.535 219.667C317.448 219.666 319.827 220.233 321.796 221.232L326.32 212.313ZM314.531 209.667C310.21 209.668 306.184 210.565 302.609 212.522L307.411 221.294C309.289 220.266 311.612 219.668 314.535 219.667L314.531 209.667ZM302.662 212.493C299.058 214.409 296.234 217.223 294.245 220.817L302.995 225.659C304.072 223.713 305.508 222.306 307.357 221.322L302.662 212.493ZM294.217 220.869C292.246 224.534 291.385 228.761 291.387 233.341L301.387 233.337C301.386 229.99 302.014 227.483 303.023 225.607L294.217 220.869ZM296.385 228.339L266.406 228.35L266.41 238.35L296.389 238.339L296.385 228.339ZM271.408 233.348C271.405 225.211 273.224 218.464 276.661 212.901L268.154 207.645C263.585 215.039 261.404 223.677 261.408 233.352L271.408 233.348ZM276.661 212.901C280.135 207.278 285.015 202.919 291.451 199.811L287.103 190.806C279.053 194.693 272.686 200.309 268.154 207.645L276.661 212.901ZM291.462 199.806C297.95 196.653 305.637 194.997 314.653 194.993L314.649 184.993C304.404 184.997 295.174 186.884 287.092 190.811L291.462 199.806ZM314.653 194.993C324.032 194.99 331.929 196.557 338.478 199.523L342.604 190.415C334.491 186.739 325.128 184.989 314.649 184.993L314.653 194.993ZM338.478 199.523C345.067 202.508 349.97 206.582 353.399 211.686L361.699 206.108C357.113 199.283 350.677 194.072 342.604 190.415L338.478 199.523ZM353.422 211.72C356.852 216.733 358.627 222.611 358.63 229.543L368.63 229.539C368.626 220.789 366.348 212.904 361.676 206.074L353.422 211.72ZM358.63 229.543C358.631 233.841 357.773 238.143 356.002 242.482L365.26 246.261C367.491 240.797 368.632 235.213 368.63 229.539L358.63 229.543ZM356.002 242.482C354.287 246.683 351.068 251.623 346.076 257.315L353.594 263.908C358.996 257.749 362.974 251.863 365.26 246.261L356.002 242.482ZM346.063 257.33C341.123 263.009 333.987 269.937 324.572 278.135L331.138 285.677C340.721 277.333 348.24 270.064 353.608 263.893L346.063 257.33ZM324.463 278.232L308.808 292.684L315.592 300.032L331.246 285.58L324.463 278.232ZM307.2 296.36L307.2 297.191L317.2 297.187L317.2 296.356L307.2 296.36ZM312.202 302.189L365.256 302.168L365.252 292.168L312.198 292.189L312.202 302.189ZM360.254 297.17L360.264 322.674L370.264 322.67L370.254 297.166L360.254 297.17ZM365.262 317.672L268.359 317.71L268.363 327.71L365.266 327.672L365.262 317.672Z" fill="#DAA520" mask="url(#path-23-outside-1_2562_3675)"/>
</g>
<defs>
<filter id="filter0_d_2562_3675" x="67.8652" y="74.4961" width="373" height="372.002" filterUnits="userSpaceOnUse" color-interpolation-filters="sRGB">
<feFlood flood-opacity="0" result="BackgroundImageFix"/>
<feColorMatrix in="SourceAlpha" type="matrix" values="0 0 0 0 0 0 0 0 0 0 0 0 0 0 0 0 0 0 127 0" result="hardAlpha"/>
<feOffset dy="4"/>
<feGaussianBlur stdDeviation="2"/>
<feComposite in2="hardAlpha" operator="out"/>
<feColorMatrix type="matrix" values="0 0 0 0 0 0 0 0 0 0 0 0 0 0 0 0 0 0 0.25 0"/>
<feBlend mode="normal" in2="BackgroundImageFix" result="effect1_dropShadow_2562_3675"/>
<feBlend mode="normal" in="SourceGraphic" in2="effect1_dropShadow_2562_3675" result="shape"/>
</filter>
<filter id="filter1_d_2562_3675" x="141.726" y="189.91" width="227.539" height="142.639" filterUnits="userSpaceOnUse" color-interpolation-filters="sRGB">
<feFlood flood-opacity="0" result="BackgroundImageFix"/>
<feColorMatrix in="SourceAlpha" type="matrix" values="0 0 0 0 0 0 0 0 0 0 0 0 0 0 0 0 0 0 127 0" result="hardAlpha"/>
<feOffset dy="4"/>
<feGaussianBlur stdDeviation="2"/>
<feComposite in2="hardAlpha" operator="out"/>
<feColorMatrix type="matrix" values="0 0 0 0 0 0 0 0 0 0 0 0 0 0 0 0 0 0 0.25 0"/>
<feBlend mode="normal" in2="BackgroundImageFix" result="effect1_dropShadow_2562_3675"/>
<feBlend mode="normal" in="SourceGraphic" in2="effect1_dropShadow_2562_3675" result="shape"/>
</filter>
</defs>
</svg>
